# xmcd
#
# Track frame offsets:
#	150
#	12089
#	30604
#	48269
#	67396
#	81126
#	98421
#	113801
#	136644
#	150020
#	169716
#	189501
#	208984
#	221366
#
# Disc length: 3176 seconds
# Revision: 1
# Processed by: cddbd v1.5.2PL0 Copyright (c) Steve Scherf et al.
# Submitted via: dBpowerAMP V12.0
#
DISCID=ac0c660e
DTITLE=Trisha Yearwood - Love Songs
DYEAR=2008
DGENRE=Country
TTITLE0=That's What I Like About You
TTITLE1=She's In Love With The Boy
TTITLE2=Down On My Knees
TTITLE3=I Don't Fall In Love So Easy
TTITLE4=If I Ain't Got You
TTITLE5=The Nightingale
TTITLE6=Thinkin' About You
TTITLE7=Maybe It's Love
TTITLE8=Powerful Thing
TTITLE9=I'll Still Love You More
TTITLE10=One Love
TTITLE11=Love Alone
TTITLE12=Baby Don't You Let Go
TTITLE13=Sweet Love
EXTD=
EXTT0=
EXTT1=
EXTT2=
EXTT3=
EXTT4=
EXTT5=
EXTT6=
EXTT7=
EXTT8=
EXTT9=
EXTT10=
EXTT11=
EXTT12=
EXTT13=
PLAYORDER=
